<?xml version="1.0" encoding="UTF-8" standalone="no"?>
<!-- Created with Inkscape (http://www.inkscape.org/) -->

<svg
   version="1.1"
   id="svg2863"
   width="526.71539"
   height="266.33884"
   viewBox="0 0 526.71539 266.33884"
   sodipodi:docname="icon.svg"
   inkscape:version="1.2.1 (9c6d41e410, 2022-07-14)"
   xmlns:inkscape="http://www.inkscape.org/namespaces/inkscape"
   xmlns:sodipodi="http://sodipodi.sourceforge.net/DTD/sodipodi-0.dtd"
   xmlns="http://www.w3.org/2000/svg"
   xmlns:svg="http://www.w3.org/2000/svg">
  <defs
     id="defs2867" />
  <sodipodi:namedview
     id="namedview2865"
     pagecolor="#ffffff"
     bordercolor="#000000"
     borderopacity="0.25"
     inkscape:showpageshadow="2"
     inkscape:pageopacity="0.0"
     inkscape:pagecheckerboard="0"
     inkscape:deskcolor="#d1d1d1"
     showgrid="false"
     inkscape:zoom="2.201287"
     inkscape:cx="445.19411"
     inkscape:cy="561.03543"
     inkscape:window-width="1920"
     inkscape:window-height="1027"
     inkscape:window-x="2044"
     inkscape:window-y="24"
     inkscape:window-maximized="1"
     inkscape:current-layer="g2869" />
  <g
     inkscape:groupmode="layer"
     inkscape:label="Image"
     id="g2869"
     transform="translate(-111.62225,-439.9014)">
    <g
       id="g2942">
      <path
         style="fill:#1abb9c;stroke-width:11.5843"
         d="m 357.3712,705.0174 c -70.75928,-5.14856 -145.32062,-39.86969 -212.10435,-98.77105 -12.65382,-11.1603 -32.06017,-31.01979 -32.9011,-33.66935 -0.53847,-1.69654 1.56177,-4.18404 11.73923,-13.9038 6.81726,-6.51067 17.57002,-16.41742 23.89502,-22.015 91.65793,-81.1165 189.56073,-111.32736 288.70967,-89.09007 54.53773,12.23182 107.53042,40.41116 162.79033,86.56522 10.51523,8.78251 38.5,36.16243 38.5,37.66789 0,1.5199 -19.40554,22.14535 -29.66985,31.53499 -45.3061,41.4454 -103.70383,75.38526 -156.04419,90.69046 -31.40838,9.18434 -65.49459,13.13137 -94.91476,10.99071 z M 402,701.88165 C 467.85618,694.74696 542.78391,658.25486 603.88583,603.55708 615.34686,593.29729 634,573.70796 634,571.93149 c 0,-1.6219 -25.44648,-26.56428 -36.5,-35.77692 -80.65685,-67.22406 -159.00051,-97.7549 -238.75449,-93.04361 -68.37435,4.03907 -134.08039,32.73361 -198.62023,86.7396 C 147.21837,540.65087 115,570.73025 115,571.97995 c 0,0.45318 5.9625,6.83406 13.25,14.17974 52.8831,53.30531 118.96601,92.70246 182.54359,108.8284 32.05341,8.13008 60.17422,10.25551 91.20641,6.89356 z m -31.5,-35.28131 c -5.30401,-2.3362 -19.64207,-13.63356 -29.82869,-23.50287 -33.44064,-32.39892 -52.72008,-71.05272 -58.25502,-116.79685 -2.54366,-21.02236 -0.53531,-25.48519 13.77197,-30.6033 49.00111,-17.52907 106.58254,-17.77142 158.31174,-0.6663 10.83737,3.58356 15.22483,6.11504 16.52493,9.53454 0.53629,1.41055 0.97507,8.56563 0.97507,15.90017 0,52.02394 -26.0199,101.14554 -70.5,133.09323 -9.36802,6.72855 -23.53967,14.46959 -26.3658,14.4019 -0.89881,-0.0215 -2.9842,-0.63376 -4.6342,-1.36052 z m 13.77976,-5.36585 C 435.42299,633.06328 470,576.28132 470,520.46573 c 0,-6.23454 -0.43878,-12.48962 -0.97507,-13.90017 -1.3001,-3.4195 -5.68756,-5.95098 -16.52493,-9.53454 -46.68396,-15.43682 -94.97828,-16.64649 -141.09161,-3.53402 -27.42519,7.79844 -29.70396,10.51742 -26.87853,32.07096 4.61097,35.17453 15.71348,63.02075 36.16335,90.70143 14.53174,19.66997 46.886,48.75827 54.18472,48.7151 1.44214,-0.009 5.67296,-1.69603 9.40183,-3.75 z m -14.10167,-18.86032 c -1.82705,-0.9315 -9.26669,-7.58425 -16.53252,-14.7839 -28.77198,-28.50989 -45.2866,-60.8202 -49.70023,-97.23688 -1.95195,-16.10538 -0.18647,-17.88131 22.3325,-22.46472 18.36646,-3.73823 39.66457,-5.28366 61.06848,-4.43125 32.90915,1.3106 62.5601,8.33722 64.2915,15.23566 1.16573,4.64464 -0.4913,21.66158 -3.00072,30.81612 -9.94776,36.29003 -40.0887,81.18853 -61.53552,91.66445 -5.8889,2.8765 -12.68992,3.35895 -16.92349,1.20052 z m 15.29792,-3.38177 c 21.15465,-10.34182 51.34712,-55.53487 61.124,-91.4924 2.61349,-9.61192 4.08797,-22.62272 3.03791,-26.80649 -0.83195,-3.31476 -8.09107,-6.75381 -20.13792,-9.54045 -32.04817,-7.41329 -69.04102,-7.88307 -101.22216,-1.28544 -23.30802,4.7785 -24.52792,6.17281 -21.45243,24.51957 6.12288,36.52594 24.71891,69.78309 53.87926,96.35774 13.37786,12.19162 15.35611,12.85026 24.77134,8.24747 z"
         id="path2873" />
      <path
         style="fill:#1abb9c;stroke-width:7.44229"
         d="m 360.73484,702.76207 c -38.83041,-2.82111 -77.18681,-13.83355 -117.24685,-33.66254 -43.9228,-21.74099 -81.05178,-48.97976 -118.20021,-86.71468 l -10.26886,-10.43099 6.73539,-6.51194 c 10.85615,-10.49601 31.1476,-28.96091 39.82149,-36.23695 49.81828,-41.78972 104.06552,-69.54681 157.34375,-80.50923 19.19675,-3.94988 34.06872,-5.3937 55.62793,-5.40055 23.0166,-0.007 37.35533,1.50399 58.46282,6.162 53.29803,11.76181 108.66225,40.8434 161.5758,84.87216 9.50835,7.91178 30.2548,27.45418 35.50747,33.44673 l 3.70626,4.22833 -3.35661,4.0633 c -4.82694,5.84318 -24.09537,24.97178 -32.00243,31.77019 -61.28638,52.69339 -131.18896,85.96872 -196.91047,93.73415 -8.12722,0.96029 -33.69281,1.70605 -40.79548,1.19002 z m 22.30156,-37.6343 c 22.8022,-11.36133 47.17138,-33.32348 62.05756,-55.92791 13.64098,-20.71362 22.09668,-42.63661 25.45992,-66.00964 1.62362,-11.28339 2.18285,-23.64865 1.46061,-32.29548 -0.64321,-7.7006 -1.23188,-8.80701 -6.23932,-11.72684 -5.97519,-3.48412 -29.09,-10.16589 -45.29262,-13.09269 -18.98736,-3.42982 -44.81302,-4.79111 -63.29821,-3.33649 -23.66952,1.86257 -51.5303,8.01702 -65.51272,14.47176 -10.82963,4.99931 -12.35537,11.2304 -8.65396,35.34281 6.70079,43.6515 25.56214,79.98031 57.5567,110.85986 9.58713,9.25302 23.07707,20.05146 28.50815,22.82023 5.35549,2.73024 6.4255,2.64546 13.95389,-1.10561 z"
         id="path2875" />
      <path
         style="fill:#1abb9c;stroke-width:7.44229"
         d="m 350.69582,701.57269 c -37.89305,-4.37558 -74.82249,-16.19265 -114.27477,-36.56684 -40.2785,-20.80088 -74.53044,-46.39679 -110.48214,-82.5615 l -10.26016,-10.32096 2.55078,-2.65125 c 3.65251,-3.79637 26.26889,-24.74731 35.33574,-32.73368 62.70776,-55.23493 132.55434,-87.56259 199.78141,-92.46645 18.27495,-1.33306 42.49377,-0.65086 58.46282,1.6468 40.42261,5.81607 81.36504,21.11931 122.26892,45.70101 18.38104,11.04632 42.4969,28.20207 58.82485,41.84733 14.90487,12.456 40.59355,37.25354 40.0932,38.70238 -0.59851,1.73309 -12.85243,14.62035 -23.63245,24.85388 -59.2007,56.19962 -136.21899,95.09595 -205.73955,103.90406 -11.28299,1.42953 -42.80829,1.81383 -52.92865,0.64522 z m 33.20563,-36.58884 c 17.05662,-8.6022 36.63508,-24.57255 50.86066,-41.48757 13.78065,-16.38597 25.58498,-38.51752 31.56229,-59.17509 4.31546,-14.91422 6.47754,-32.02642 6.03846,-47.79259 -0.33295,-11.95529 -0.96882,-14.1244 -4.9039,-16.72852 -8.25436,-5.46247 -41.04629,-13.89604 -64.00129,-16.46011 -12.19171,-1.36181 -47.9245,-1.16912 -58.46282,0.31527 -25.83117,3.63849 -51.32583,10.6825 -58.51783,16.16811 -5.45512,4.16082 -6.62883,12.50814 -4.16399,29.61368 6.38033,44.27829 24.12367,80.13911 54.97244,111.10406 11.55419,11.59771 25.85932,23.16872 32.61971,26.38514 4.40218,2.09445 6.59548,1.79007 13.99627,-1.94238 z"
         id="path2877" />
      <path
         style="fill:#1abb9c;stroke-width:7.44229"
         d="m 350.73288,701.52749 c -34.99378,-3.8227 -69.689,-14.50857 -107.24489,-33.03063 -42.7939,-21.10537 -76.10031,-45.19769 -113.07094,-81.79027 l -14.77632,-14.62522 8.35183,-8.1284 c 11.40234,-11.09729 32.47691,-30.05764 42.49007,-38.22741 56.02348,-45.70972 116.55961,-73.39715 176.26365,-80.61777 11.70694,-1.41584 49.67997,-1.6337 60.71139,-0.34831 56.9866,6.64012 113.64481,31.16405 170.24885,73.69046 14.84622,11.15391 22.92034,17.86449 36.14671,30.04235 10.58296,9.74399 23.27978,22.58502 23.27978,23.54419 0,1.05313 -15.20396,17.07433 -24.15276,25.45102 -18.88962,17.68197 -33.88527,29.55016 -56.1533,44.44211 -44.20229,29.56067 -93.02252,49.80658 -138.31204,57.35847 -18.90687,3.15266 -46.54037,4.12289 -63.78203,2.23941 z m 32.87443,-36.50192 c 7.69939,-3.78526 17.52878,-10.17156 25.95362,-16.86246 8.1046,-6.43657 24.0419,-22.73396 29.96201,-30.63896 14.25728,-19.03748 24.81854,-41.96928 29.35255,-63.73353 2.68869,-12.90629 3.30484,-19.18354 3.31069,-33.72855 0.006,-16.13161 -0.32137,-17.44565 -5.11034,-20.48273 -7.96838,-5.0534 -39.04783,-13.1663 -60.72716,-15.85207 -11.22211,-1.39026 -41.25865,-1.94484 -52.10468,-0.96203 -16.94124,1.53512 -40.12894,6.15407 -53.5781,10.67266 -17.20747,5.7813 -20.1307,9.54695 -19.40778,25.00084 0.6779,14.4916 5.22614,35.90274 11.06221,52.07601 10.33305,28.63557 28.78786,55.82654 52.19772,76.90711 15.58994,14.03873 25.64499,20.99143 30.41621,21.03171 0.91942,0.008 4.82229,-1.53484 8.67305,-3.428 z"
         id="path2879" />
      <path
         style="fill:#1abb9c;stroke-width:7.44229"
         d="m 355.91648,702.09136 c -1.06004,-0.12846 -5.68567,-0.68509 -10.27918,-1.23695 -56.92201,-6.8386 -123.37983,-36.82531 -177.31579,-80.00739 -13.43249,-10.75429 -22.8763,-19.26177 -38.54691,-34.72509 l -14.13387,-13.9469 2.89102,-2.99649 c 4.04855,-4.19624 26.45761,-24.96291 35.67788,-33.063 28.85126,-25.3461 57.41548,-44.66207 89.27836,-60.37265 32.21519,-15.8843 62.38311,-25.53543 93.22285,-29.82326 24.57227,-3.41643 59.53553,-2.91054 83.04577,1.20159 57.41627,10.04257 117.32081,39.95082 173.22337,86.48436 14.60705,12.15899 40.15303,36.64493 40.15303,38.48688 0,1.04126 -15.92225,17.75324 -25.14941,26.3968 -42.56042,39.86855 -95.47048,71.85439 -147.66924,89.27081 -23.51626,7.84634 -47.23416,12.79591 -67.46824,14.0796 -9.86863,0.62609 -32.56383,0.78077 -36.92964,0.25169 z m 28.26773,-37.40337 c 7.28388,-3.61128 17.33194,-10.16213 25.37672,-16.54437 6.57513,-5.21632 21.35195,-19.90652 26.73135,-26.57468 18.91228,-23.4431 30.83879,-51.2205 35.03191,-81.59096 0.47799,-3.46205 0.84484,-12.08076 0.84771,-19.91591 0.006,-16.00378 -0.33571,-17.41938 -4.90212,-20.31607 -8.31173,-5.27252 -39.1088,-13.31699 -61.56735,-16.08195 -13.29938,-1.63733 -48.86475,-1.63892 -60.38635,-0.003 -22.08593,3.1365 -43.41739,8.47908 -54.17419,13.5682 -9.57105,4.52813 -11.57513,11.11639 -9.10751,29.9403 5.85741,44.68244 23.82868,81.60923 54.95456,112.91887 11.61944,11.68804 26.36929,23.68479 33.0614,26.89039 4.19171,2.00788 6.08041,1.70172 14.13387,-2.29112 z"
         id="path2881" />
      <path
         style="fill:#1abb9c;stroke-width:7.44229"
         d="m 350.13444,701.48729 c -66.5342,-7.60857 -138.44991,-41.83178 -198.18804,-94.31363 -4.05946,-3.56637 -13.88892,-12.92244 -21.84325,-20.79129 l -14.46242,-14.30699 8.63176,-8.41075 c 9.65345,-9.40629 28.49934,-26.50418 38.26698,-34.71764 26.29928,-22.11463 52.0938,-39.03895 81.59096,-53.53347 33.96255,-16.68876 64.66863,-26.12313 98.61585,-30.2995 11.64403,-1.43251 49.53975,-1.65156 60.71139,-0.35093 19.05458,2.21838 39.98553,6.91948 58.79688,13.2058 50.57299,16.90035 104.37059,50.12235 149.67766,92.4315 10.7862,10.07249 21.2008,20.67273 21.2008,21.5787 0,1.12205 -12.82961,14.78037 -22.8508,24.32682 -56.14941,53.48945 -128.76052,91.72309 -195.52627,102.95506 -19.10492,3.21401 -47.44618,4.19042 -64.6215,2.22632 z m 33.51959,-36.55165 c 23.29374,-11.462 50.05731,-36.47597 64.61736,-60.39315 12.38063,-20.33716 20.08318,-42.1231 23.05431,-65.20696 1.07335,-8.33925 1.08618,-30.97221 0.0196,-34.56761 -0.97676,-3.2926 -4.02354,-5.48765 -11.75602,-8.46961 -11.119,-4.28794 -36.42261,-10.39042 -50.6708,-12.2203 -16.19815,-2.08031 -50.04052,-2.26514 -63.6024,-0.34736 -22.74108,3.21581 -44.10893,8.57641 -54.00252,13.54774 -9.83394,4.94135 -11.68352,10.85985 -9.2681,29.6571 4.72606,36.779 18.01317,68.73738 40.14641,96.56079 13.61779,17.11876 39.95096,40.6375 49.38612,44.10785 3.16829,1.16533 5.19478,0.71753 12.07604,-2.66849 z"
         id="path2883" />
      <path
         style="fill:#1abb9c;stroke-width:7.44229"
         d="m 355.27403,702.1213 c -38.38589,-4.13588 -73.25848,-14.53008 -110.6446,-32.97894 -44.82506,-22.11974 -79.66969,-47.52544 -118.0549,-86.07548 l -10.90945,-10.95629 4.48497,-4.55028 c 12.23615,-12.41436 40.89057,-37.86077 54.92869,-48.77914 53.46279,-41.58155 109.65797,-66.31343 167.34632,-73.65025 11.37089,-1.44616 50.68927,-1.68187 61.35383,-0.36781 35.08704,4.32331 66.51982,13.94845 101.18564,30.9844 36.34608,17.86168 72.60171,42.94421 104.27872,72.14257 10.96655,10.10844 23.88976,23.12706 23.88976,24.06613 0,0.96366 -12.08289,14.04985 -20.3017,21.98744 -60.0117,57.95831 -137.33772,97.59277 -208.7312,106.98791 -7.44416,0.97964 -42.78395,1.84075 -48.82608,1.18974 z m 28.26773,-37.18398 c 6.71874,-3.2318 18.88636,-11.19556 26.54078,-17.37103 7.016,-5.66041 19.13103,-17.71822 25.47522,-25.35491 15.1314,-18.21411 27.62844,-43.5526 32.75601,-66.41477 2.87535,-12.82026 3.67149,-20.30269 3.73384,-35.09209 0.0687,-16.29095 -0.39024,-18.21934 -4.97526,-20.90634 -10.28654,-6.02832 -42.32898,-14.19318 -63.93839,-16.29239 -11.5964,-1.12651 -32.59739,-1.49513 -44.64769,-0.78366 -28.2875,1.67013 -64.65967,10.68851 -72.49491,17.97491 -3.92775,3.65262 -4.60444,5.96236 -4.54413,15.51034 0.1171,18.53851 6.90481,46.51003 16.38531,67.52225 9.55903,21.1863 21.87238,38.7061 39.71443,56.50687 14.3204,14.28727 27.50583,24.87981 33.92695,27.25529 3.20363,1.18518 5.14975,0.77323 12.06784,-2.55447 z"
         id="path2885" />
      <path
         style="fill:#1abb9c;stroke-width:7.44229"
         d=""
         id="path2887" />
      <path
         style="fill:#1abb9c;stroke-width:11.5843"
         d="m 355.27403,702.14072 c -1.06004,-0.15444 -5.54112,-0.73509 -9.95795,-1.29032 C 312.22042,696.69002 278.2258,685.84796 242.52431,668.06656 199.44181,646.609 167.54106,623.48806 130.73827,587.0466 l -15.09754,-14.94932 8.0314,-7.86843 c 14.44872,-14.15554 33.72268,-31.36638 47.21917,-42.16474 54.62128,-43.70175 114.63002,-70.33455 174.10355,-77.26984 9.67959,-1.12875 49.68732,-1.13986 59.10526,-0.0164 52.13231,6.21874 103.82687,27.30517 155.97577,63.62318 10.0645,7.00921 23.72473,17.38841 32.499,24.69313 13.2883,11.06272 40.55813,37.18908 40.55813,38.85746 0,1.02949 -12.28851,14.27392 -21.17436,22.8215 -59.71049,57.43746 -137.06222,96.9478 -207.85854,106.17165 -7.3835,0.96198 -44.23637,1.86465 -48.82608,1.19594 z m 26.01916,-36.09139 c 17.81629,-7.84896 43.0805,-28.97199 57.8364,-48.35615 17.28076,-22.70094 28.74199,-50.68114 32.08991,-78.3408 0.36241,-2.99418 0.65893,-11.60424 0.65893,-19.13347 0,-17.3766 -0.21094,-18.01974 -7.09748,-21.63926 -10.26468,-5.39505 -43.27132,-13.34666 -62.60818,-15.0829 -28.7578,-2.58214 -55.86859,-0.99213 -81.59096,4.78518 -25.07932,5.63289 -35.24518,10.31583 -38.02338,17.5156 -3.10372,8.04342 0.34364,34.86573 7.31248,56.89489 9.85262,31.1451 26.66137,57.7208 51.53788,81.48466 11.9093,11.37663 25.34546,21.69673 30.5689,23.47949 2.3817,0.81287 4.74938,0.40436 9.3155,-1.60724 z"
         id="path2889" />
      <path
         style="fill:#1abb9c;stroke-width:2.63125"
         d="m 375.57157,641.33483 c -3.03321,-0.77292 -6.4477,-3.18983 -13.50799,-9.56149 -29.25678,-26.40323 -47.89635,-58.69752 -54.60296,-94.60327 -2.9373,-15.7257 -2.25958,-19.60574 3.94599,-22.59139 5.9961,-2.88487 26.12169,-6.81325 42.36371,-8.26912 10.24964,-0.91874 26.22957,-1.19182 35.66095,-0.6094 22.63506,1.39778 44.86964,5.58542 54.36761,10.23953 5.56732,2.72805 6.22012,3.87025 5.97649,10.45691 -0.25637,6.93098 -1.66184,15.35707 -3.78871,22.71399 -6.96752,24.10098 -23.05776,53.10728 -40.28952,72.631 -2.95726,3.3506 -9.18351,9.44786 -11.72307,11.4802 -7.09439,5.67744 -14.73739,9.04698 -18.4025,8.11304 z"
         id="path2891" />
      <path
         style="fill:#1abb9c;stroke-width:5.26249"
         d="M 352.29391,701.86275 C 313.53968,697.46856 276.53594,685.82889 237.58434,665.78042 195.53249,644.13626 162.05985,619.0464 123.34595,580.15157 l -7.94088,-7.97799 2.9438,-3.00218 c 6.99282,-7.13149 32.75496,-30.72635 43.14756,-39.51772 55.81222,-47.21294 119.93142,-77.30731 179.89476,-84.43367 11.04448,-1.31258 22.49908,-1.74133 39.2952,-1.47081 20.7869,0.33478 29.2724,1.19296 46.33653,4.68619 49.38234,10.10917 96.9674,32.70199 146.27806,69.45106 18.11786,13.50243 31.95208,25.51599 49.22243,42.74437 l 11.06294,11.03605 -0.98724,1.38645 c -3.645,5.11889 -25.00642,26.49405 -35.46607,35.48884 -52.83582,45.43618 -114.39358,77.17941 -172.60866,89.00835 -18.83369,3.82689 -25.89458,4.51573 -48.83507,4.7642 -13.38355,0.14496 -19.1058,0.0344 -23.3954,-0.45196 z m 30.51886,-36.63953 c 12.60013,-6.15275 25.8858,-15.74879 38.18155,-27.57796 17.75179,-17.07817 29.43604,-33.9152 38.94129,-56.11448 6.30756,-14.73119 11.14787,-34.68526 11.57668,-47.72462 0.0991,-3.01337 0.0979,-4.66117 -0.003,-3.66175 -0.10051,0.99942 -0.40738,4.0658 -0.68194,6.8142 -2.67857,26.81325 -13.78161,55.22221 -30.3603,77.68182 -10.53657,14.27419 -24.57499,28.16401 -38.89375,38.48206 -9.41577,6.78499 -23.50421,14.42265 -26.6268,14.435 -7.89035,0.0312 -37.21079,-25.32641 -53.63155,-46.38294 -18.15256,-23.27744 -30.08419,-49.3616 -36.00782,-78.71832 -3.56005,-17.64311 -4.39705,-32.41379 -2.10589,-37.16291 2.2562,-4.67667 6.39486,-7.16691 18.66735,-11.23217 16.56376,-5.48676 36.59773,-9.382 56.10354,-10.90833 l 5.45136,-0.42656 -5.85834,0.21084 c -17.58449,0.63287 -46.45681,6.46562 -61.9072,12.50642 -8.33046,3.25705 -12.63628,7.08982 -13.73846,12.22911 -1.17523,5.47992 -0.38242,17.5714 2.01732,30.76676 6.37247,35.04014 21.05045,65.58326 44.15135,91.87369 12.4411,14.15883 32.52115,31.67838 41.69525,36.37848 4.00482,2.05176 6.36505,1.78577 13.02909,-1.46834 z m -4.29458,-1.08816 c 4.34665,-1.63534 8.82306,-4.15445 16.93229,-9.52868 10.14382,-6.72262 15.90147,-11.49988 25.67666,-21.30455 14.64223,-14.6864 24.21705,-28.03982 32.92475,-45.91818 8.51451,-17.48171 13.27719,-33.76897 15.47579,-52.92358 0.63804,-5.55871 0.63532,-23.10956 -0.004,-26.32996 -1.00554,-5.06451 -5.51696,-7.79585 -20.61164,-12.47886 -25.11375,-7.79137 -47.06056,-11.1549 -72.81597,-11.15967 -21.02578,-0.004 -36.3266,1.78443 -56.28308,6.57822 -16.12673,3.87384 -28.06343,8.29128 -31.98982,11.83853 -5.01302,4.52897 -5.54719,10.8388 -2.49305,29.44911 5.30632,32.33393 16.25942,58.55964 34.96676,83.72316 9.79769,13.17902 29.10657,32.4303 42.89982,42.77185 4.49354,3.36905 9.92665,6.44017 11.39329,6.44017 0.46833,0 2.23606,-0.5209 3.92828,-1.15756 z m 93.58859,-147.95975 c -0.0862,-1.81144 -0.15679,-0.32935 -0.15679,3.29353 0,3.62288 0.0705,5.10497 0.15679,3.29352 0.0862,-1.81144 0.0862,-4.77561 0,-6.58705 z m -0.46236,-8.62318 c -0.10111,-0.8165 -0.18591,-0.25799 -0.18846,1.24113 -0.003,1.49913 0.0802,2.16717 0.18383,1.48455 0.10365,-0.68262 0.10573,-1.90918 0.005,-2.72568 z m -1.0411,-4.21022 c -1.47349,-3.10517 -6.98831,-5.92875 -18.65248,-9.55008 -18.09914,-5.61917 -45.03726,-10.82278 -54.91038,-10.60698 -1.27153,0.0278 0.32827,0.31873 3.63424,0.66092 17.68966,1.83099 35.95494,5.67702 52.4693,11.0482 11.14314,3.62424 16.25682,6.40393 17.35182,9.43208 0.31395,0.86823 0.64071,1.36894 0.72613,1.1127 0.0854,-0.25625 -0.19297,-1.19983 -0.61863,-2.09684 z m -77.99209,-20.54638 c -0.93695,-0.098 -2.47014,-0.098 -3.4071,0 -0.93695,0.098 -0.17035,0.1782 1.70355,0.1782 1.87391,0 2.6405,-0.0802 1.70355,-0.1782 z m -14.53695,-0.46022 c -1.68651,-0.0874 -4.44626,-0.0874 -6.13278,0 -1.68651,0.0874 -0.30663,0.15892 3.06639,0.15892 3.37303,0 4.7529,-0.0715 3.06639,-0.15892 z"
         id="path2893" />
      <path
         style="fill:#1abb9c;stroke-width:5.26249"
         d="m 355.47387,702.23939 c -44.81977,-4.4754 -89.5151,-19.57672 -134.88511,-45.57396 -33.49865,-19.19489 -60.14084,-39.85576 -91.91041,-71.27603 l -13.5112,-13.36264 6.46986,-6.19803 c 18.50663,-17.72909 35.96118,-33.36473 48.03646,-43.03068 56.50926,-45.2342 118.204,-72.46788 177.39622,-78.30735 7.79297,-0.7688 37.82128,-1.07106 47.56082,-0.47875 41.26134,2.50931 87.74337,17.59018 131.42538,42.6403 29.67101,17.0153 57.14489,37.08313 81.96564,59.87035 9.34031,8.57508 25.47151,24.53462 25.47151,25.20044 0,1.51288 -26.36921,28.41367 -35.88809,36.61158 -41.44417,35.69278 -89.81547,63.84484 -136.42386,79.3986 -24.75788,8.26199 -48.36779,13.144 -69.36485,14.34313 -7.32206,0.41816 -32.64952,0.53178 -36.34237,0.16304 z m 18.81022,-34.6893 c -3.79792,-0.75298 -8.19344,-3.33562 -15.85741,-9.3172 -21.29271,-16.61859 -39.51984,-37.29776 -52.0375,-59.03797 -3.26758,-5.67503 -9.2276,-17.91096 -11.12048,-22.83038 -0.69759,-1.813 -1.34711,-3.21761 -1.44336,-3.12136 -0.39437,0.39437 3.49008,9.25159 7.79534,17.77471 9.47333,18.75437 20.03675,33.19111 35.9056,49.07124 16.13874,16.15022 31.87781,28.0294 36.93821,27.87939 l 1.6791,-0.0498 z m 8.1546,-2.17577 c 7.79322,-3.65203 19.71407,-11.49657 28.00302,-18.42744 23.99653,-20.06491 40.33112,-42.23793 50.79238,-68.94697 2.74217,-7.00114 6.95148,-20.58213 6.84844,-22.09592 -0.0405,-0.59565 -0.10382,-0.56466 -0.27436,0.13436 -1.24905,5.11946 -4.708,16.01851 -6.72796,21.19961 -10.81804,27.74771 -28.54479,51.51876 -53.05392,71.14374 -7.73027,6.18979 -20.44703,14.26059 -27.66137,17.55554 -1.32232,0.60393 -2.22991,1.11481 -2.01687,1.13528 0.21304,0.0205 2.05382,-0.74372 4.09064,-1.6982 z m -5.02124,-0.95964 c 6.65656,-2.2902 19.87531,-10.51064 30.20455,-18.78354 6.77892,-5.42937 18.17639,-16.67863 23.95325,-23.64175 21.12768,-25.46618 34.12385,-55.31591 37.71351,-86.62076 0.98455,-8.58613 0.78561,-26.57594 -0.32175,-29.09511 -1.5414,-3.50658 -6.03638,-5.94104 -18.35426,-9.94055 -34.03702,-11.05155 -69.4646,-14.4405 -104.77487,-10.02263 -22.65555,2.83457 -51.135,10.88195 -57.61268,16.2795 -4.92793,4.10622 -5.72422,11.14676 -3.1421,27.78171 4.24514,27.34878 12.48192,50.1957 25.86065,71.73139 8.45645,13.61232 15.58716,22.4417 28.85144,35.72443 13.30875,13.32724 24.17808,22.33832 31.15529,25.82888 1.79901,0.9 3.41588,1.63637 3.59305,1.63637 0.17717,0 1.47043,-0.39507 2.87392,-0.87794 z m -84.23038,-93.56176 c -0.27987,-0.80283 -0.58835,-1.38019 -0.68552,-1.28303 -0.0972,0.0972 0.0523,0.83353 0.33219,1.63636 0.27987,0.80283 0.58835,1.38019 0.68552,1.28302 0.0972,-0.0972 -0.0523,-0.83352 -0.33219,-1.63635 z m -3.62506,-10.91189 c -0.3072,-1.02535 -0.64218,-1.78065 -0.74439,-1.67843 -0.10221,0.10221 0.0655,1.02476 0.37271,2.05011 0.3072,1.02535 0.64218,1.78065 0.74439,1.67843 0.10221,-0.10221 -0.0655,-1.02476 -0.37271,-2.05011 z m -1.01122,-3.30643 c -0.14501,-0.3624 -0.25266,-0.25476 -0.27445,0.27446 -0.0197,0.47888 0.0876,0.74719 0.23859,0.59624 0.15095,-0.15096 0.16709,-0.54277 0.0358,-0.8707 z m -0.80246,-3.28407 c -0.29317,-1.16431 -0.61822,-2.03174 -0.72233,-1.92764 -0.1041,0.10411 0.0506,1.1419 0.34377,2.30621 0.29317,1.1643 0.61822,2.03174 0.72233,1.92764 0.1041,-0.10411 -0.0506,-1.1419 -0.34377,-2.30621 z m 181.95658,-4.96916 c 0.6358,-3.44247 1.14022,-6.8076 1.12094,-7.47806 -0.0193,-0.67047 -0.5038,1.43851 -1.0767,4.68661 -0.57291,3.2481 -1.19753,6.72334 -1.38805,7.72275 -0.19052,0.99942 -0.2262,1.70701 -0.0793,1.57243 0.14691,-0.13458 0.78731,-3.06126 1.42311,-6.50373 z m -183.31401,-0.4876 c -0.31221,-1.39512 -0.65527,-2.44897 -0.76235,-2.3419 -0.10708,0.10709 0.0608,1.33616 0.37297,2.73128 0.31221,1.39512 0.65527,2.44897 0.76235,2.34189 0.10708,-0.10708 -0.0608,-1.33615 -0.37297,-2.73127 z m -1.02953,-4.46168 c -0.12602,-0.31232 -0.22913,-0.0568 -0.22913,0.56785 0,0.62464 0.10311,0.88017 0.22913,0.56785 0.12602,-0.31232 0.12602,-0.82338 0,-1.1357 z m -0.45428,-2.2714 c -0.12602,-0.31231 -0.22913,-0.0568 -0.22913,0.56785 0,0.62464 0.10311,0.88017 0.22913,0.56785 0.12602,-0.31232 0.12602,-0.82338 0,-1.1357 z m -0.54864,-3.27288 c -0.17378,-1.15878 -0.40887,-2.01396 -0.52244,-1.90039 -0.11357,0.11357 -0.0643,1.15459 0.10945,2.31338 0.17377,1.15878 0.40887,2.01396 0.52244,1.90039 0.11357,-0.11357 0.0643,-1.15459 -0.10945,-2.31338 z M 471.18689,536.397 c -0.10441,-0.69053 -0.19264,-0.23338 -0.19605,1.01589 -0.004,1.24926 0.082,1.81425 0.18985,1.25551 0.10783,-0.55874 0.11062,-1.58087 0.006,-2.2714 z m -188.36063,-8.52399 c -0.47254,-3.49795 -0.87916,-5.74664 -0.9036,-4.99708 -0.057,1.74753 1.46262,12.94388 1.63389,12.03842 0.0709,-0.37478 -0.25774,-3.54338 -0.73029,-7.04134 z m 188.80208,3.97495 c -0.11427,-0.43725 -0.20776,-0.0795 -0.20776,0.79499 0,0.87449 0.0935,1.23223 0.20776,0.79499 0.11426,-0.43725 0.11426,-1.15274 0,-1.58998 z M 281.76358,512.78711 c -0.0876,-1.69691 -0.16,-0.42775 -0.1608,2.82035 -9.1e-4,3.2481 0.0709,4.63647 0.15935,3.08528 0.0884,-1.5512 0.0891,-4.20873 10e-4,-5.90563 z m 189.86193,-4.30616 c -0.14501,-0.3624 -0.25266,-0.25475 -0.27446,0.27446 -0.0197,0.47888 0.0876,0.74719 0.2386,0.59624 0.15095,-0.15096 0.16709,-0.54277 0.0358,-0.8707 z m -189.43463,-0.90856 c -0.14502,-0.3624 -0.25266,-0.25475 -0.27446,0.27446 -0.0197,0.47888 0.0876,0.74719 0.2386,0.59624 0.15095,-0.15096 0.16708,-0.54277 0.0358,-0.8707 z m 187.10245,-5.79708 c -1.80304,-1.88198 -6.38856,-4.17938 -12.63308,-6.32934 -6.19137,-2.13166 -17.11696,-5.23014 -17.40974,-4.93736 -0.11006,0.11005 1.59108,0.67035 3.7803,1.2451 6.41251,1.68351 17.09826,5.30803 20.66688,7.01004 1.81601,0.86612 4.01733,2.19112 4.89182,2.94443 2.03347,1.7517 2.34633,1.78154 0.70382,0.0671 z m -181.90347,-1.72693 c 0.56506,-0.72051 0.549,-0.73658 -0.17152,-0.17152 -0.75672,0.59346 -0.99736,0.96651 -0.62347,0.96651 0.0943,0 0.45208,-0.35775 0.79499,-0.79499 z m 11.58838,-5.12355 c 2.96404,-1.02785 8.55776,-2.76174 12.43049,-3.85308 3.87274,-1.09135 6.72781,-1.99673 6.34461,-2.01196 -1.12819,-0.0448 -13.44088,3.40012 -18.57555,5.19725 -4.50789,1.57775 -10.93732,4.52203 -10.93732,5.0086 0,0.12538 1.20344,-0.37953 2.6743,-1.12201 1.47087,-0.7425 5.09943,-2.19096 8.06347,-3.2188 z m 139.50578,-4.80436 c -0.15095,-0.15095 -0.54278,-0.16708 -0.87071,-0.0358 -0.36239,0.14502 -0.25475,0.25266 0.27447,0.27446 0.47888,0.0197 0.74719,-0.0876 0.59624,-0.2386 z m -1.81712,-0.45428 c -0.15095,-0.15095 -0.54277,-0.16708 -0.87071,-0.0358 -0.36239,0.14502 -0.25475,0.25266 0.27447,0.27446 0.47888,0.0197 0.74719,-0.0876 0.59624,-0.2386 z m -2.60265,-0.63409 c -0.62463,-0.20004 -1.54455,-0.36372 -2.04426,-0.36372 -0.71942,0 -0.67214,0.0757 0.22714,0.36372 0.62464,0.20004 1.54456,0.36371 2.04426,0.36371 0.71943,0 0.67215,-0.0757 -0.22714,-0.36371 z m -114.14723,-0.27446 c -0.15096,-0.15096 -0.54278,-0.16709 -0.87071,-0.0358 -0.36239,0.14502 -0.25475,0.25266 0.27446,0.27446 0.47889,0.0197 0.7472,-0.0876 0.59625,-0.2386 z m 2.05372,-0.48068 c -0.31232,-0.12603 -0.82338,-0.12603 -1.1357,0 -0.31232,0.12602 -0.0568,0.22913 0.56785,0.22913 0.62463,0 0.88016,-0.10311 0.56785,-0.22913 z m 108.79052,0.0264 c -0.15095,-0.15095 -0.54277,-0.16709 -0.8707,-0.0359 -0.36239,0.14502 -0.25475,0.25266 0.27446,0.27446 0.47888,0.0197 0.7472,-0.0876 0.59624,-0.2386 z m -106.75573,-0.45427 c -0.15095,-0.15096 -0.54277,-0.1671 -0.8707,-0.0359 -0.36239,0.14502 -0.25475,0.25266 0.27446,0.27446 0.47888,0.0197 0.7472,-0.0876 0.59624,-0.2386 z m 104.72094,-0.0264 c -0.31232,-0.12603 -0.82338,-0.12603 -1.1357,0 -0.31232,0.12602 -0.0568,0.22913 0.56785,0.22913 0.62463,0 0.88016,-0.10311 0.56785,-0.22913 z M 326.05925,487.3684 c -0.31231,-0.12603 -0.82338,-0.12603 -1.13569,0 -0.31232,0.12602 -0.0568,0.22913 0.56785,0.22913 0.62463,0 0.88016,-0.10311 0.56784,-0.22913 z m 100.39582,0 c -0.31232,-0.12603 -0.82338,-0.12603 -1.1357,0 -0.31232,0.12602 -0.0568,0.22913 0.56785,0.22913 0.62463,0 0.88017,-0.10311 0.56785,-0.22913 z m -98.12442,-0.45428 c -0.31231,-0.12603 -0.82338,-0.12603 -1.1357,0 -0.31231,0.12602 -0.0568,0.22913 0.56785,0.22913 0.62464,0 0.88017,-0.10311 0.56785,-0.22913 z m 95.85302,0 c -0.31232,-0.12603 -0.82338,-0.12603 -1.1357,0 -0.31232,0.12602 -0.0568,0.22913 0.56785,0.22913 0.62463,0 0.88017,-0.10311 0.56785,-0.22913 z m -93.12734,-0.45428 c -0.31232,-0.12602 -0.82338,-0.12602 -1.1357,0 -0.31232,0.12602 -0.0568,0.22913 0.56785,0.22913 0.62464,0 0.88017,-0.10311 0.56785,-0.22913 z m 90.85594,0 c -0.31232,-0.12602 -0.82338,-0.12602 -1.1357,0 -0.31232,0.12602 -0.0568,0.22913 0.56785,0.22913 0.62464,0 0.88017,-0.10311 0.56785,-0.22913 z m -88.58454,-0.45428 c -0.31232,-0.12602 -0.82338,-0.12602 -1.1357,0 -0.31232,0.12602 -0.0568,0.22913 0.56785,0.22913 0.62463,0 0.88017,-0.10311 0.56785,-0.22913 z m 86.59776,0.0933 c -0.33557,-0.33557 -15.92171,-2.51831 -17.66082,-2.47329 -0.87448,0.0226 1.35004,0.43044 4.94339,0.90622 3.59334,0.47578 7.47743,1.04683 8.63131,1.26901 2.38549,0.45933 4.39389,0.60583 4.08612,0.29806 z m -83.87208,-0.54762 c -0.31232,-0.12602 -0.82338,-0.12602 -1.1357,0 -0.31232,0.12602 -0.0568,0.22913 0.56785,0.22913 0.62463,0 0.88017,-0.10311 0.56785,-0.22913 z m 2.72568,-0.45428 c -0.31232,-0.12602 -0.82339,-0.12602 -1.1357,0 -0.31232,0.12602 -0.0568,0.22913 0.56785,0.22913 0.62463,0 0.88016,-0.10311 0.56785,-0.22913 z m 3.64288,-0.4514 c -0.30756,-0.12444 -0.92084,-0.13201 -1.36284,-0.0168 -0.442,0.11518 -0.19036,0.21699 0.5592,0.22625 0.74957,0.009 1.1112,-0.085 0.80364,-0.20942 z m 3.39845,-0.46945 c -0.43724,-0.11426 -1.15273,-0.11426 -1.58998,0 -0.43724,0.11427 -0.0795,0.20776 0.79499,0.20776 0.87449,0 1.23224,-0.0935 0.79499,-0.20776 z m 3.63424,-0.45428 c -0.43724,-0.11426 -1.15274,-0.11426 -1.58998,0 -0.43724,0.11427 -0.0795,0.20776 0.79499,0.20776 0.87449,0 1.23223,-0.0935 0.79499,-0.20776 z m 5.00237,-0.45326 c -0.43433,-0.1137 -1.25203,-0.11782 -1.81712,-0.009 -0.56508,0.10866 -0.20972,0.20169 0.7897,0.20673 0.99941,0.005 1.46176,-0.0839 1.02742,-0.19757 z m 44.97369,0 c -0.43433,-0.1137 -1.25203,-0.11782 -1.81712,-0.009 -0.56508,0.10866 -0.20972,0.20169 0.7897,0.20673 0.99941,0.005 1.46176,-0.0839 1.02742,-0.19757 z m -39.75477,-0.44301 c -0.31231,-0.12602 -0.82338,-0.12602 -1.1357,0 -0.31231,0.12602 -0.0568,0.22913 0.56785,0.22913 0.62464,0 0.88017,-0.10311 0.56785,-0.22913 z m 31.56298,0.0264 c -0.15095,-0.15095 -0.54277,-0.16709 -0.87071,-0.0359 -0.36239,0.14502 -0.25475,0.25267 0.27447,0.27446 0.47888,0.0197 0.74719,-0.0876 0.59624,-0.23859 z"
         id="path2895" />
      <path
         style="fill:#1abb9c;stroke-width:5.26249"
         d="m 360.92522,702.48339 c -11.46574,-0.43948 -27.35289,-2.79696 -42.70229,-6.33656 -52.80125,-12.17604 -109.95308,-41.49294 -156.27222,-80.16218 -11.89643,-9.93167 -18.81878,-16.29584 -33.32411,-30.63703 l -13.56295,-13.40948 4.93163,-4.68722 c 18.07782,-17.18189 35.54559,-32.95049 46.06667,-41.58556 54.59598,-44.80909 116.00333,-73.16683 174.19355,-80.44209 12.94589,-1.61857 40.45374,-2.17899 56.33843,-1.14779 24.28367,1.57643 56.144,9.22889 82.67115,19.85658 38.41979,15.39229 77.98071,39.48049 113.56993,69.15146 12.81437,10.68343 40.65803,37.17138 40.65803,38.67839 0,2.32988 -26.76062,28.98887 -41.33945,41.18246 -56.47613,47.23607 -122.60491,78.76482 -183.57599,87.525 -12.36447,1.7765 -32.09407,2.61037 -47.65238,2.01402 z m 13.50536,-34.73955 c -0.15095,-0.15096 -0.54277,-0.16709 -0.8707,-0.0358 -0.3624,0.14502 -0.25476,0.25267 0.27446,0.27446 0.47888,0.0197 0.74719,-0.0876 0.59624,-0.23859 z m -3.09478,-0.80346 c -0.46379,-0.41499 -3.1421,-1.64823 -3.1421,-1.44679 0,0.28238 2.35525,1.57352 2.91496,1.59796 0.22903,0.01 0.33124,-0.058 0.22714,-0.15117 z m -3.84624,-2.02336 c -0.23736,-0.20657 -1.86254,-1.37648 -3.61152,-2.59979 -1.74898,-1.2233 -5.32643,-3.94878 -7.94989,-6.05661 -2.62347,-2.10782 -4.48165,-3.48393 -4.12929,-3.058 1.42453,1.72194 15.03894,12.09 15.87552,12.09 0.13571,0 0.0525,-0.16902 -0.18482,-0.3756 z m 13.65111,-2.08903 c 3.92367,-1.80614 11.30612,-6.22945 17.03549,-10.20707 9.39191,-6.52033 18.25207,-14.27787 27.23059,-23.84183 25.08949,-26.72542 41.22328,-62.15037 44.13451,-96.90612 0.51848,-6.18985 0.31284,-22.14843 -0.3202,-24.84873 -0.78421,-3.34512 -5.91032,-6.42976 -16.61372,-9.99732 -17.50092,-5.83324 -36.45529,-9.79807 -56.02116,-11.71836 -7.71213,-0.75691 -34.06464,-0.75769 -41.56659,-10e-4 -18.48523,1.86396 -35.38158,5.32171 -51.37883,10.51441 -12.0039,3.89646 -16.27017,6.40209 -18.43514,10.82712 -1.07442,2.19603 -1.29167,3.28506 -1.43665,7.2015 -0.50682,13.69136 5.45144,41.14794 13.09834,60.35918 6.10916,15.34799 16.2634,32.79815 26.56669,45.65511 12.55054,15.66118 35.25878,36.81101 46.31563,43.13709 4.49482,2.57168 5.45882,2.55698 11.39104,-0.17375 z m 2.97538,1.77155 c 0.73715,-0.3812 1.34028,-0.7953 1.34028,-0.92023 0,-0.20346 -2.67463,1.02566 -3.14211,1.44395 -0.45933,0.411 0.57647,0.10993 1.80183,-0.52372 z m 8.72232,-5.08182 c 2.18622,-1.35143 3.97495,-2.5705 3.97495,-2.70903 0,-0.13853 -0.56217,0.11912 -1.24927,0.57257 -0.6871,0.45345 -3.06262,1.8985 -5.27894,3.21122 -2.21633,1.31272 -4.15837,2.52442 -4.31566,2.69267 -0.53366,0.57083 2.87783,-1.30029 6.86892,-3.76743 z m 11.58789,-8.04333 c 0.33274,-0.53838 -4.28653,2.69776 -5.34154,3.74215 -0.37478,0.37101 0.60725,-0.21162 2.18231,-1.29473 1.57505,-1.08311 2.99671,-2.18445 3.15923,-2.44742 z m -53.49519,0.95625 c 0,-0.0782 -0.66439,-0.74256 -1.47641,-1.47641 l -1.47641,-1.33426 1.33426,1.47641 c 1.24372,1.37622 1.61856,1.68522 1.61856,1.33426 z m 57.69352,-4.24985 c 0,-0.12493 -0.8177,0.42049 -1.81712,1.21204 -0.99941,0.79155 -1.81712,1.5414 -1.81712,1.66633 0,0.12492 0.81771,-0.4205 1.81712,-1.21205 0.99942,-0.79155 1.81712,-1.5414 1.81712,-1.66632 z m -63.14488,-0.83222 c -1.10346,-1.12434 -2.1085,-2.04426 -2.23343,-2.04426 -0.12492,0 0.67569,0.91992 1.77915,2.04426 1.10346,1.12435 2.10851,2.04426 2.23343,2.04426 0.12493,0 -0.67569,-0.91991 -1.77915,-2.04426 z m 64.962,-0.45428 c 0.58681,-0.62463 0.96472,-1.1357 0.83979,-1.1357 -0.12492,0 -0.70725,0.51107 -1.29407,1.1357 -0.58682,0.62464 -0.96472,1.1357 -0.8398,1.1357 0.12493,0 0.70726,-0.51106 1.29408,-1.1357 z m 2.72568,-2.2714 c 0.58681,-0.62463 0.96472,-1.13569 0.83979,-1.13569 -0.12492,0 -0.70726,0.51106 -1.29407,1.13569 -0.58682,0.62464 -0.96472,1.1357 -0.8398,1.1357 0.12493,0 0.70726,-0.51106 1.29408,-1.1357 z m 3.86137,-3.40709 c 0.97591,-0.99942 1.67216,-1.81712 1.54724,-1.81712 -0.12493,0 -1.02561,0.8177 -2.00151,1.81712 -0.97591,0.99941 -1.67216,1.81712 -1.54724,1.81712 0.12493,0 1.02561,-0.81771 2.00151,-1.81712 z m -78.36324,-0.14796 c 0,-0.0814 -0.56217,-0.64354 -1.24927,-1.24927 l -1.24927,-1.10131 1.10131,1.24927 c 1.02935,1.16763 1.39723,1.45759 1.39723,1.10131 z m 85.63172,-6.66624 c 1.48348,-1.49912 2.59502,-2.72568 2.4701,-2.72568 -0.12493,0 -1.4409,1.22656 -2.92438,2.72568 -1.48348,1.49912 -2.59502,2.72568 -2.4701,2.72568 0.12493,0 1.4409,-1.22656 2.92438,-2.72568 z m -91.08308,0.77791 c 0,-0.0719 -1.07324,-1.14509 -2.38497,-2.38496 l -2.38497,-2.25433 2.25433,2.38497 c 2.09475,2.21616 2.51561,2.5933 2.51561,2.25432 z m -6.92453,-7.70567 c -3.77665,-4.36144 -7.08134,-8.65957 -11.43893,-14.87766 -2.18869,-3.12318 -4.09063,-5.78071 -4.22652,-5.90564 -1.30948,-1.20383 7.66929,11.67263 10.92855,15.67265 3.14661,3.86175 6.72999,7.94989 6.96832,7.94989 0.12493,0 -0.87921,-1.27766 -2.23142,-2.83924 z m 111.72658,-8.74489 c 3.77397,-4.84153 7.92319,-10.80351 10.11695,-14.53695 1.80791,-3.0768 0.29628,-1.13244 -2.47224,3.17996 -3.44529,5.36659 -9.25622,13.09376 -13.85832,18.42834 -3.1562,3.65853 -3.25708,3.82033 -0.68941,1.10569 1.65429,-1.74898 4.76065,-5.42865 6.90302,-8.17704 z M 310.09517,605.44127 c -0.24034,-0.43724 -0.78017,-1.20384 -1.19961,-1.70355 -0.73219,-0.8723 -0.73674,-0.86323 -0.11403,0.22714 1.19013,2.08395 1.31675,2.2714 1.5343,2.2714 0.11897,0 0.0197,-0.35775 -0.22066,-0.79499 z m -2.32067,-3.74781 c -0.26744,-0.4997 -0.58846,-0.90856 -0.71339,-0.90856 -0.12493,0 -0.008,0.40886 0.25911,0.90856 0.26743,0.49971 0.58846,0.90856 0.71338,0.90856 0.12493,0 0.008,-0.40885 -0.2591,-0.90856 z m 143.57618,-2.95282 c 0.81764,-1.49912 1.27966,-2.52125 1.02671,-2.27139 -0.25295,0.24985 -1.13453,1.68083 -1.95907,3.17995 -0.82453,1.49913 -1.28655,2.52126 -1.02671,2.2714 0.25984,-0.24985 1.14142,-1.68083 1.95907,-3.17996 z m -145.62044,-0.68141 c -0.38762,-0.74957 -0.80697,-1.36284 -0.93189,-1.36284 -0.12493,0 0.09,0.61327 0.47761,1.36284 0.38761,0.74956 0.80696,1.36283 0.93189,1.36283 0.12493,0 -0.09,-0.61327 -0.47761,-1.36283 z m -4.1859,-7.93073 c -1.42501,-2.86277 -2.66296,-5.13301 -2.751,-5.04497 -0.20085,0.20085 4.81988,10.25002 5.12108,10.25002 0.12147,0 -0.94507,-2.34227 -2.37008,-5.20505 z m 153.66736,1.52425 c 0.89367,-1.77458 1.55078,-3.30058 1.46026,-3.3911 -0.0905,-0.0905 -0.91968,1.3614 -1.84256,3.22651 -0.92288,1.86511 -1.57999,3.39111 -1.46025,3.39111 0.11974,0 0.94889,-1.45194 1.84255,-3.22652 z m 3.80574,-8.35761 c 0,-0.24986 -0.29215,0.0568 -0.64922,0.68141 -0.35708,0.62464 -0.64923,1.34013 -0.64923,1.58998 0,0.24986 0.29215,-0.0568 0.64923,-0.68142 0.35707,-0.62463 0.64922,-1.34012 0.64922,-1.58997 z m -161.86477,-2.34481 c -0.38434,-0.70919 -0.70697,-1.14573 -0.71698,-0.9701 -0.0308,0.53999 1.02611,2.64917 1.22686,2.44843 0.10389,-0.1039 -0.12556,-0.76915 -0.50988,-1.47833 z m 163.22761,-0.83515 c 0,-0.24986 -0.29215,0.0568 -0.64922,0.68142 -0.35708,0.62463 -0.64923,1.34012 -0.64923,1.58998 0,0.24985 0.29215,-0.0568 0.64923,-0.68142 0.35707,-0.62464 0.64922,-1.34013 0.64922,-1.58998 z m 0.92684,-2.2714 c 0,-0.24986 -0.19816,-0.14764 -0.44036,0.22714 -0.24221,0.37478 -0.44037,0.88584 -0.44037,1.1357 0,0.24985 0.19816,0.14764 0.44037,-0.22714 0.2422,-0.37478 0.44036,-0.88585 0.44036,-1.1357 z m 1.36284,-3.63424 c 0,-0.24985 -0.19816,-0.14764 -0.44037,0.22714 -0.2422,0.37478 -0.44036,0.88585 -0.44036,1.1357 0,0.24985 0.19816,0.14764 0.44036,-0.22714 0.24221,-0.37478 0.44037,-0.88585 0.44037,-1.1357 z M 293.293,571.40436 c -0.53552,-0.92092 -0.66484,-0.62615 -0.22647,0.51622 0.15579,0.40599 0.37895,0.64247 0.49592,0.52551 0.11696,-0.11697 -0.004,-0.58574 -0.26945,-1.04173 z m 172.50697,-6.96183 c 0,-0.42951 -0.14432,-0.34555 -0.39042,0.22714 -0.21473,0.4997 -0.39042,1.2152 -0.39042,1.58998 0,0.42951 0.14433,0.34554 0.39042,-0.22714 0.21474,-0.49971 0.39042,-1.2152 0.39042,-1.58998 z m 0.82847,-3.26514 c -0.14502,-0.36239 -0.25267,-0.25475 -0.27446,0.27446 -0.0197,0.47889 0.0876,0.7472 0.23859,0.59625 0.15096,-0.15096 0.16709,-0.54278 0.0358,-0.87071 z m -177.16909,-1.36284 c -0.14501,-0.36239 -0.25266,-0.25475 -0.27446,0.27447 -0.0197,0.47888 0.0876,0.74719 0.2386,0.59624 0.15095,-0.15096 0.16709,-0.54278 0.0358,-0.87071 z m 177.62336,-0.45428 c -0.14501,-0.36239 -0.25266,-0.25475 -0.27445,0.27447 -0.0197,0.47888 0.0876,0.74719 0.23859,0.59624 0.15096,-0.15096 0.16709,-0.54278 0.0358,-0.87071 z m 0.45428,-1.81712 c -0.14501,-0.36239 -0.25266,-0.25475 -0.27445,0.27447 -0.0197,0.47888 0.0876,0.74719 0.23859,0.59624 0.15096,-0.15096 0.16709,-0.54277 0.0359,-0.87071 z m 1.36284,-5.90563 c -0.14501,-0.36239 -0.25266,-0.25475 -0.27445,0.27446 -0.0197,0.47888 0.0876,0.7472 0.23859,0.59624 0.15096,-0.15095 0.16709,-0.54277 0.0358,-0.8707 z m 0.45428,-2.2714 c -0.14501,-0.36239 -0.25266,-0.25475 -0.27445,0.27446 -0.0197,0.47889 0.0876,0.7472 0.23859,0.59624 0.15096,-0.15095 0.16709,-0.54277 0.0359,-0.8707 z m 0.44482,-2.75407 c -0.12602,-0.31232 -0.22913,-0.0568 -0.22913,0.56785 0,0.62463 0.10311,0.88017 0.22913,0.56785 0.12602,-0.31232 0.12602,-0.82338 0,-1.1357 z m 0.45428,-2.72568 c -0.12602,-0.31232 -0.22913,-0.0568 -0.22913,0.56785 0,0.62464 0.10311,0.88017 0.22913,0.56785 0.12602,-0.31232 0.12602,-0.82338 0,-1.1357 z m 0.46374,-2.243 c -0.14501,-0.3624 -0.25266,-0.25476 -0.27446,0.27446 -0.0197,0.47888 0.0876,0.74719 0.2386,0.59624 0.15095,-0.15096 0.16709,-0.54277 0.0358,-0.8707 z m -186.25467,-2.72568 c -0.14502,-0.3624 -0.25267,-0.25475 -0.27446,0.27446 -0.0197,0.47888 0.0876,0.74719 0.23859,0.59624 0.15096,-0.15096 0.16709,-0.54277 0.0359,-0.8707 z m 186.69949,-1.84551 c -0.12602,-0.31232 -0.22913,-0.0568 -0.22913,0.56785 0,0.62463 0.10311,0.88016 0.22913,0.56784 0.12602,-0.31231 0.12602,-0.82338 0,-1.13569 z M 284.008,536.64629 c -0.14502,-0.36239 -0.25267,-0.25475 -0.27446,0.27446 -0.0197,0.47888 0.0876,0.7472 0.23859,0.59624 0.15096,-0.15095 0.16709,-0.54277 0.0358,-0.8707 z m -0.45428,-3.17996 c -0.14502,-0.36239 -0.25267,-0.25475 -0.27446,0.27446 -0.0197,0.47889 0.0876,0.7472 0.2386,0.59624 0.15095,-0.15095 0.16708,-0.54277 0.0358,-0.8707 z m -0.4498,-2.97257 c -0.11517,-0.442 -0.21699,-0.19035 -0.22624,0.55921 -0.009,0.74956 0.085,1.11119 0.20941,0.80363 0.12444,-0.30756 0.13201,-0.92083 0.0169,-1.36284 z m -0.45428,-3.17995 c -0.11517,-0.442 -0.21699,-0.19036 -0.22624,0.5592 -0.009,0.74956 0.085,1.1112 0.20941,0.80364 0.12444,-0.30756 0.13201,-0.92084 0.0169,-1.36284 z m -0.45427,-3.63424 c -0.11518,-0.442 -0.217,-0.19036 -0.22625,0.5592 -0.009,0.74957 0.085,1.1112 0.20941,0.80364 0.12444,-0.30756 0.13201,-0.92084 0.0169,-1.36284 z m 186.81404,-22.19479 c -0.60573,-0.64664 -2.73673,-1.9611 -4.73556,-2.92102 -3.61481,-1.73598 -12.55893,-5.01091 -13.55878,-4.96461 -0.28814,0.0134 2.0238,0.92366 5.13765,2.02292 6.48288,2.28862 11.72858,4.76481 12.94759,6.1118 0.46122,0.50964 0.94474,0.92662 1.07449,0.92662 0.12976,0 -0.25967,-0.52907 -0.86539,-1.17571 z m -175.77186,-4.50279 c 0.62463,-0.35707 0.93127,-0.64922 0.68142,-0.64922 -0.24986,0 -0.96535,0.29215 -1.58998,0.64922 -0.62464,0.35707 -0.93128,0.64923 -0.68142,0.64923 0.24985,0 0.96534,-0.29216 1.58998,-0.64923 z m 8.21748,-2.903 c 3.64513,-1.2193 7.3248,-2.37326 8.17703,-2.56436 0.85225,-0.19111 1.32792,-0.42473 1.05705,-0.51917 -0.60186,-0.20985 -11.46733,3.09143 -14.28257,4.33951 -1.11831,0.49579 -1.93108,0.91481 -1.80615,0.93118 0.12492,0.0164 3.20951,-0.96786 6.85464,-2.18716 z m 147.82759,-0.95838 c -0.4997,-0.21473 -1.21519,-0.39042 -1.58998,-0.39042 -0.42951,0 -0.34554,0.14433 0.22714,0.39042 0.49971,0.21474 1.2152,0.39043 1.58998,0.39043 0.42952,0 0.34555,-0.14433 -0.22714,-0.39043 z m -3.98441,-1.18302 c -0.15095,-0.15095 -0.54277,-0.16709 -0.8707,-0.0358 -0.36239,0.14502 -0.25475,0.25266 0.27446,0.27446 0.47888,0.0197 0.7472,-0.0876 0.59624,-0.2386 z m -132.64967,-1.36284 c -0.15095,-0.15095 -0.54277,-0.16708 -0.8707,-0.0358 -0.3624,0.14502 -0.25475,0.25266 0.27446,0.27446 0.47888,0.0197 0.74719,-0.0876 0.59624,-0.2386 z m 1.81712,-0.45428 c -0.15095,-0.15095 -0.54277,-0.16708 -0.8707,-0.0358 -0.3624,0.14502 -0.25476,0.25266 0.27446,0.27446 0.47888,0.0197 0.74719,-0.0876 0.59624,-0.2386 z m 104.93861,-4.08851 c -0.15095,-0.15095 -0.54277,-0.16709 -0.8707,-0.0359 -0.3624,0.14502 -0.25475,0.25267 0.27446,0.27446 0.47888,0.0197 0.74719,-0.0876 0.59624,-0.23859 z m -2.48043,-0.4778 c -0.30756,-0.12444 -0.92084,-0.13201 -1.36284,-0.0168 -0.442,0.11518 -0.19036,0.21699 0.55921,0.22625 0.74956,0.009 1.11119,-0.085 0.80363,-0.20942 z m -2.72568,-0.45428 c -0.30756,-0.12444 -0.92084,-0.13201 -1.36284,-0.0168 -0.442,0.11518 -0.19035,0.21699 0.55921,0.22625 0.74956,0.009 1.11119,-0.085 0.80363,-0.20942 z m -3.17996,-0.45428 c -0.30756,-0.12444 -0.92083,-0.13201 -1.36284,-0.0168 -0.442,0.11518 -0.19035,0.21699 0.55921,0.22625 0.74956,0.009 1.11119,-0.085 0.80363,-0.20942 z m -3.41574,-0.46945 c -0.43724,-0.11426 -1.15273,-0.11426 -1.58998,0 -0.43724,0.11427 -0.0795,0.20776 0.79499,0.20776 0.87449,0 1.23224,-0.0935 0.79499,-0.20776 z m -3.39845,-0.43911 c -0.30756,-0.12444 -0.92084,-0.13201 -1.36284,-0.0168 -0.442,0.11518 -0.19036,0.21699 0.5592,0.22625 0.74957,0.009 1.1112,-0.085 0.80364,-0.20942 z"
         id="path2897" />
      <path
         style="fill:#1abb9c;stroke-width:5.26249"
         d="m 372.9663,443.4879 c -15.09637,0.0742 -30.25991,0.48977 -45.11872,3.41042 -56.58548,10.0239 -109.01692,37.16144 -154.02864,72.31438 -20.6853,16.29703 -39.74106,34.50877 -58.88618,52.55243 5.87936,6.46953 12.59059,12.62508 18.85884,18.91114 22.98787,22.65347 48.29441,43.00821 75.90524,59.76948 43.27896,26.57016 91.68961,46.18361 142.45599,51.62312 23.91946,1.3843 48.1362,1.0066 71.65084,-4.02357 55.29688,-11.41643 106.74787,-37.66119 151.61248,-71.52264 20.64125,-15.70802 39.75007,-33.44286 57.04095,-52.76997 1.11708,-0.98869 1.79291,-2.48539 0.14692,-3.41784 -38.65484,-40.68489 -84.42551,-74.92109 -135.28892,-98.81746 -32.41166,-14.89311 -67.23544,-25.47976 -102.96572,-27.76686 -7.1218,-0.32496 -14.25572,-0.30159 -21.38308,-0.26263 z m 3.41951,41.27468 c 27.81285,0.12516 55.70106,4.77969 81.76236,14.56712 3.54873,1.75564 8.20574,2.88584 10.21864,6.54535 1.99704,6.95548 1.27839,14.39477 1.19933,21.55723 -1.91195,35.13952 -16.65737,69.18162 -39.50434,95.78535 -11.40463,12.75034 -23.97879,24.61433 -38.62683,33.59549 -5.17024,2.95561 -10.25637,6.70003 -16.23277,7.72266 -4.79316,-0.21215 -8.50419,-3.99723 -12.32414,-6.50773 -15.00481,-11.82975 -28.84782,-25.2305 -40.76332,-40.18601 -15.42162,-20.30556 -27.03932,-43.6194 -32.90715,-68.46527 -2.90809,-12.56663 -5.87706,-25.43008 -4.99441,-38.41148 0.24286,-6.09853 5.80448,-9.83192 10.95506,-11.81305 25.77656,-9.97711 53.64097,-14.36618 81.21757,-14.38966 z m -66.3825,6.43356 c -1.57469,0.51911 -0.59061,0.0582 0,0 z m -5.72464,1.6716 c -2.65827,0.94231 -5.33225,1.83353 -8.01466,2.71503 2.72544,-1.0369 5.50734,-1.94227 8.29149,-2.81529 z m 144.13088,0.14463 c 2.15023,0.65326 -0.12003,0.11874 0,0 z m 4.74599,1.48173 c 0.79706,0.22527 4.41696,1.45774 3.42937,1.19242 -0.74449,-0.22867 -3.85283,-1.27679 -3.42937,-1.19242 z m -160.01382,2.31221 c -1.21213,0.65808 -0.66141,0.26316 0,0 z m 167.92733,0.53414 c 1.55801,0.64294 3.12358,1.28548 4.60136,2.10015 -1.35173,-0.56408 -4.38345,-1.92593 -4.60136,-2.10015 z m 4.46294,67.7835 c -0.49661,1.10987 -0.15304,0.0934 0,0 z m -172.4852,6.10616 c 0.34346,0.51326 0.18973,0.73715 0,0 z m 169.30525,3.43371 c -0.49662,1.10987 -0.15305,0.0934 0,0 z m -1.36284,3.63424 c -0.49662,1.10987 -0.15304,0.0934 0,0 z m -1.07714,2.61033 c -0.65052,1.36171 -0.29185,0.43455 0,0 z m -162.80338,0.39129 c 0.43687,0.90058 -0.43342,-0.84452 0,0 z m 161.44054,2.78867 c -0.65052,1.36171 -0.29185,0.43455 0,0 z m -3.46654,7.37051 c -1.82179,3.68174 0.5542,-1.19825 0,0 z m -149.62749,6.51075 c -0.004,-0.005 -0.0127,-0.0254 0,0 z m 0.0985,0.18366 c 0.0124,0.0237 -0.01,-0.0174 0,0 z m 145.34999,1.05407 c -0.81819,1.41771 -0.0416,0.0458 0,0 z m -141.48062,5.52234 c 0.31698,0.49773 0.11031,0.20939 0,0 z m 137.19868,1.53586 c -1.12743,1.73773 -2.29642,3.4482 -3.48784,5.14259 1.28944,-1.84404 2.50514,-3.73816 3.77709,-5.59421 l -0.24502,0.38254 z m -53.88805,53.07886 c -1.32638,0.82997 -5.05863,3.07164 -1.55981,0.93658 0.3312,-0.19934 3.43725,-2.09612 1.55981,-0.93658 z m -8.70673,5.07604 c -1.36557,0.69688 0.27681,-0.20716 0,0 z m -14.52186,1.74525 c 0.597,0.25634 1.79157,0.91708 0.52259,0.30344 0.13236,0.0748 -1.26692,-0.65535 -0.52259,-0.30344 z"
         id="path2899" />
      <path
         style="fill:#1abb9c;stroke-width:5.26249"
         d="m 369.24422,443.4666 c -22.3237,-0.36522 -44.55405,3.05288 -66.07189,8.84934 -25.49507,6.76151 -49.92557,17.09686 -73.05419,29.71594 -33.77232,17.98122 -63.99914,41.85452 -91.9534,67.82155 -7.83174,7.18747 -15.51417,14.53395 -23.22133,21.85491 6.14327,6.80791 13.11108,13.31614 19.67741,19.90553 42.85448,42.3255 94.84345,75.57231 151.7094,95.59409 23.00651,7.91536 46.9492,13.51738 71.24735,15.31253 14.69595,0.52702 29.45994,0.37811 44.11378,-0.90437 52.7746,-6.23001 102.67646,-27.89773 147.13094,-56.38611 25.73614,-16.5761 49.78293,-35.82991 71.06835,-57.8568 4.67462,-5.04007 9.99992,-9.66731 13.77807,-15.43329 -1.53964,-2.85031 -4.51754,-4.97987 -6.65356,-7.47807 -40.17391,-40.96349 -87.72262,-75.17212 -140.59161,-97.76044 -26.20348,-11.0428 -53.83341,-19.17932 -82.16077,-22.23385 -11.64231,-0.98284 -23.34412,-0.93933 -35.01855,-1.00096 z m 6.61101,41.37406 c 26.75605,-0.13319 53.4364,4.72175 78.75098,13.23444 4.71317,1.99206 10.35191,3.31594 13.47312,7.69082 1.9239,5.13599 1.39252,10.85039 1.56765,16.25461 -0.42961,27.07555 -8.69109,53.68876 -22.41386,76.95202 -13.41825,22.83413 -32.35978,42.40139 -54.50832,56.89909 -5.54657,3.26219 -11.08786,7.02985 -17.4179,8.52484 -4.44648,-0.0297 -8.0008,-3.49838 -11.54864,-5.78496 -13.58136,-10.57548 -25.84726,-22.81223 -37.26425,-35.66983 -19.03443,-22.65773 -32.25579,-50.03851 -38.46957,-78.94591 -2.24176,-11.16524 -4.74475,-22.6215 -3.50516,-34.06682 0.96771,-6.84403 8.14034,-9.73137 13.81916,-11.85652 24.77319,-8.9448 51.21411,-13.07745 77.51679,-13.23178 z"
         id="path2901" />
      <path
         style="fill:#1abb9c;stroke-width:5.26249"
         d="m 372.14735,439.96634 c -14.67698,-0.011 -29.3646,0.85642 -43.82772,3.45609 -53.97328,8.77819 -104.32345,33.48298 -147.93864,65.93898 -22.89219,16.97297 -44.07489,36.15685 -64.29035,56.20972 -1.63053,2.17095 -5.33448,4.39193 -4.28371,7.52933 5.67427,8.07924 13.19724,14.66113 20.11519,21.65016 37.46894,36.09172 81.0164,66.21782 128.91162,86.73281 33.16215,14.07166 68.67048,23.40455 104.77622,24.68293 18.06814,0.37202 36.18048,-0.62554 53.98879,-3.80926 49.24494,-8.36999 95.22691,-30.23906 136.71487,-57.5019 29.9009,-19.89273 57.77673,-43.20832 80.96271,-70.71842 1.468,-1.44664 1.47327,-3.74603 -0.36202,-4.91633 -15.18021,-15.58724 -30.53032,-31.13372 -47.75524,-44.49457 -41.99172,-33.59026 -89.46678,-61.71365 -141.84174,-75.33945 -24.4905,-6.31564 -49.83848,-10.0289 -75.16998,-9.42009 z m 1.41164,46.04817 c 16.87565,-0.19095 33.83986,0.99186 50.33534,4.63245 13.27479,2.98126 26.82794,6.17811 39.11073,11.97183 3.3487,1.27733 5.12048,4.66451 5.20914,8.11758 1.88511,22.18237 -2.42787,44.77669 -10.7226,65.4216 -13.67951,33.88177 -38.85827,63.18877 -70.1919,81.91649 -4.36446,2.1704 -8.83911,5.67327 -13.90219,5.12067 -6.26797,-2.172 -11.10035,-7.11462 -16.22897,-11.1405 -12.91106,-11.39121 -25.50755,-23.33708 -35.85758,-37.12841 -9.27526,-12.70945 -17.32627,-26.18672 -23.0551,-40.81748 -6.64272,-16.17197 -10.65841,-33.2935 -12.76858,-50.61553 -0.12607,-5.20352 -1.05062,-10.72062 0.61577,-15.75047 3.83158,-6.90483 12.28007,-8.58349 19.1179,-11.05532 22.05772,-7.03318 45.14958,-10.88528 68.33804,-10.67291 z"
         id="path2903" />
      <path
         style="fill:#1abb9c;stroke-width:5.26249"
         d="m 373.54568,504.6453 c -19.90976,0.27509 -39.93536,2.47341 -59.11581,7.95256 -4.51139,1.25992 -9.16975,4.4987 -9.31451,9.63126 -0.29683,9.01565 2.12551,17.89159 4.19322,26.59754 7.66389,29.04382 23.60008,55.71411 45.19462,76.55323 6.15336,5.77167 11.83545,12.55591 19.59259,16.21832 5.56086,1.85948 10.95393,-1.85202 15.61899,-4.44023 11.60049,-7.86806 20.47248,-19.07094 28.57835,-30.35062 12.8271,-18.71555 23.66798,-39.16322 29.41487,-61.21381 1.71813,-8.17279 3.47341,-16.63389 2.44947,-25.00321 -1.39795,-4.02083 -6.20181,-5.25406 -9.70512,-6.82619 -17.86162,-6.10496 -36.85173,-8.09289 -55.618,-8.96713 -3.76109,-0.13416 -7.52526,-0.18373 -11.28867,-0.15172 z"
         id="path2907" />
    </g>
  </g>
</svg>
